<svg width="183" height="183" xmlns="http://www.w3.org/2000/svg" xmlns:xlink="http://www.w3.org/1999/xlink" xml:space="preserve" overflow="hidden"><g transform="translate(-774 -183)"><g><path d="M953.382 312.647 932.441 312.647 932.441 283.853C932.441 282.408 931.269 281.235 929.824 281.235L869.618 281.235 869.618 239.353 890.559 239.353C892.004 239.353 893.177 238.181 893.177 236.735L893.177 189.617C893.177 188.172 892.004 187 890.559 187L843.441 187C841.995 187 840.823 188.172 840.823 189.617L840.823 236.735C840.823 238.181 841.995 239.353 843.441 239.353L864.382 239.353 864.382 281.235 804.176 281.235C802.731 281.235 801.559 282.408 801.559 283.853L801.559 312.647 780.617 312.647C779.172 312.647 778 313.819 778 315.265L778 362.383C778 363.828 779.172 365 780.617 365L827.735 365C829.181 365 830.353 363.828 830.353 362.383L830.353 315.265C830.353 313.819 829.181 312.647 827.735 312.647L806.794 312.647 806.794 286.471 864.382 286.471 864.382 312.647 843.441 312.647C841.995 312.647 840.823 313.819 840.823 315.265L840.823 362.383C840.823 363.828 841.995 365 843.441 365L890.559 365C892.004 365 893.177 363.828 893.177 362.383L893.177 315.265C893.177 313.819 892.004 312.647 890.559 312.647L869.618 312.647 869.618 286.471 927.206 286.471 927.206 312.647 906.265 312.647C904.819 312.647 903.647 313.819 903.647 315.265L903.647 362.383C903.647 363.828 904.819 365 906.265 365L953.382 365C954.828 365 956 363.828 956 362.383L956 315.265C956 313.819 954.828 312.647 953.382 312.647ZM846.059 192.235 887.941 192.235 887.941 234.118 846.059 234.118ZM825.118 359.765 783.235 359.765 783.235 317.882 825.118 317.882ZM887.941 359.765 846.059 359.765 846.059 317.882 887.941 317.882ZM950.765 359.765 908.882 359.765 908.882 317.882 950.765 317.882Z" fill="#000000" fill-rule="evenodd" fill-opacity="1"/></g></g></svg>