<svg width="184" height="169" xmlns="http://www.w3.org/2000/svg" xmlns:xlink="http://www.w3.org/1999/xlink" xml:space="preserve" overflow="hidden"><g transform="translate(-3886 -1283)"><g><path d="M3985.72 1437.68 3973.42 1442.31 3973.42 1352.45 4047.62 1323.74 4047.62 1361.39C4047.62 1362.84 4048.81 1364.02 4050.27 1364.02 4051.73 1364.02 4052.92 1362.84 4052.92 1361.39L4052.92 1319.8C4052.97 1319.52 4052.97 1319.23 4052.92 1318.96 4052.92 1318.96 4052.92 1318.96 4052.92 1318.59 4052.66 1318.21 4052.29 1317.92 4051.86 1317.75L3972.36 1286.2C3971.71 1285.93 3970.99 1285.93 3970.35 1286.2L3890.26 1317.27C3889.83 1317.44 3889.47 1317.74 3889.2 1318.11 3889.2 1318.11 3889.2 1318.11 3889.2 1318.48 3889.15 1318.76 3889.15 1319.04 3889.2 1319.32L3889.2 1413.97C3888.7 1415.15 3889.15 1416.52 3890.26 1417.18L3969.02 1448.46C3969.5 1448.9 3970.12 1449.14 3970.77 1449.14 3971.38 1449.14 3971.96 1448.91 3972.41 1448.51L3987.62 1442.84C3989 1442.31 3989.69 1440.78 3989.16 1439.42 3988.63 1438.05 3987.09 1437.37 3985.72 1437.89ZM4043.06 1319.85 3970.77 1347.82 3937.01 1334.78 4010.52 1306.76ZM3970.77 1290.98 4003.26 1303.86 3929.64 1331.94 3898.48 1319.85ZM3893.92 1323.74 3927.26 1336.62 3927.26 1367.22C3927.26 1368.68 3928.44 1369.85 3929.91 1369.85 3931.37 1369.85 3932.56 1368.68 3932.56 1367.22L3932.56 1338.67 3968.12 1352.45 3968.12 1442.2 3893.92 1412.76Z" fill="#000000" fill-rule="evenodd" fill-opacity="1"/><path d="M4026.5 1365C4003.03 1365 3984 1383.8 3984 1407 3984 1430.2 4003.03 1449 4026.5 1449 4049.97 1449 4069 1430.2 4069 1407 4069 1383.8 4049.97 1365 4026.5 1365ZM4026.5 1443.75C4005.96 1443.75 3989.31 1427.3 3989.31 1407 3989.31 1386.7 4005.96 1370.25 4026.5 1370.25 4047.04 1370.25 4063.69 1386.7 4063.69 1407 4063.69 1427.3 4047.04 1443.75 4026.5 1443.75Z" fill="#000000" fill-rule="evenodd" fill-opacity="1"/><path d="M4045.82 1404.11 4028.94 1404.11 4028.94 1387.63C4028.94 1386.18 4027.74 1385 4026.25 1385 4024.77 1385 4023.57 1386.18 4023.57 1387.63L4023.57 1404.11 4006.69 1404.11C4005.2 1404.11 4004 1405.29 4004 1406.73 4004 1408.18 4005.2 1409.36 4006.69 1409.36L4023.57 1409.36 4023.57 1425.84C4023.57 1427.29 4024.77 1428.47 4026.25 1428.47 4027.74 1428.47 4028.94 1427.29 4028.94 1425.84L4028.94 1409.36 4045.82 1409.36C4047.3 1409.36 4048.51 1408.18 4048.51 1406.73 4048.51 1405.29 4047.3 1404.11 4045.82 1404.11Z" fill="#000000" fill-rule="evenodd" fill-opacity="1"/></g></g></svg>