<svg width="179" height="179" xmlns="http://www.w3.org/2000/svg" xmlns:xlink="http://www.w3.org/1999/xlink" xml:space="preserve" overflow="hidden"><g transform="translate(-2557 -187)"><g><path d="M2735.46 313.7 2735.15 313.39C2735 313.148 2734.8 312.936 2734.57 312.77L2703.07 297.27C2702.34 296.91 2701.49 296.91 2700.76 297.27L2687.9 303.573 2686.85 301.3C2686.26 300.025 2684.74 299.457 2683.45 300.031 2683.42 300.04 2683.4 300.05 2683.38 300.06 2682.07 300.647 2681.48 302.171 2682.07 303.47L2683.22 305.898 2669.26 312.77C2669.03 312.936 2668.83 313.147 2668.68 313.39 2668.56 313.479 2668.46 313.584 2668.37 313.7 2668.14 314.093 2668.01 314.537 2668 314.991L2668 345.991C2668.01 346.976 2668.58 347.873 2669.47 348.316L2700.97 363.816C2701.7 364.16 2702.55 364.16 2703.28 363.816L2734.78 348.316C2735.51 347.77 2735.91 346.892 2735.83 345.991L2735.83 314.991C2735.82 314.537 2735.69 314.093 2735.46 313.7ZM2701.71 302.385 2727.32 314.991 2701.71 327.598 2676.08 314.991ZM2672.83 319.176 2699.08 332.093 2699.08 357.306 2672.83 344.39ZM2704.33 357.306 2704.33 332.093 2730.58 319.176 2730.58 344.39Z" fill="#000000" fill-rule="evenodd" fill-opacity="1"/><path d="M2620.31 273.404 2618.21 277.954C2617.67 279.226 2618.22 280.697 2619.46 281.305 2619.8 281.381 2620.16 281.381 2620.51 281.305 2621.47 281.297 2622.35 280.732 2622.76 279.854L2624.86 275.554C2625.42 274.297 2624.86 272.822 2623.61 272.254 2622.39 271.655 2620.92 272.152 2620.33 273.366 2620.32 273.378 2620.31 273.391 2620.31 273.404Z" fill="#000000" fill-rule="evenodd" fill-opacity="1"/><path d="M2625.44 267.307C2625.77 267.46 2626.13 267.545 2626.49 267.557 2627.47 267.563 2628.35 266.994 2628.74 266.107L2630.85 261.557C2631.44 260.312 2630.92 258.819 2629.67 258.221 2629.66 258.216 2629.66 258.212 2629.65 258.207 2628.37 257.668 2626.9 258.217 2626.29 259.457L2624.24 264.007C2623.66 265.226 2624.17 266.69 2625.38 267.279 2625.4 267.288 2625.42 267.298 2625.44 267.307Z" fill="#000000" fill-rule="evenodd" fill-opacity="1"/><path d="M2612.44 297.169C2612.77 297.352 2613.13 297.454 2613.5 297.468 2614.47 297.475 2615.35 296.792 2615.74 295.728L2617.85 290.268C2618.44 288.775 2617.92 286.983 2616.67 286.265 2616.66 286.259 2616.66 286.254 2616.65 286.248 2615.37 285.601 2613.9 286.26 2613.29 287.748L2611.25 293.208C2610.66 294.671 2611.17 296.428 2612.39 297.135 2612.4 297.147 2612.43 297.158 2612.44 297.169Z" fill="#000000" fill-rule="evenodd" fill-opacity="1"/><path d="M2676.74 285.24C2675.23 285.822 2674.58 287.309 2675.28 288.561 2675.29 288.571 2675.29 288.58 2675.3 288.591L2677.82 293.141C2678.29 294.028 2679.35 294.597 2680.52 294.591 2680.95 294.579 2681.38 294.494 2681.78 294.341 2683.31 293.756 2683.99 292.243 2683.29 290.961 2683.28 290.954 2683.28 290.948 2683.28 290.941L2680.76 286.39C2680.01 285.167 2678.23 284.659 2676.74 285.24Z" fill="#000000" fill-rule="evenodd" fill-opacity="1"/><path d="M2675.87 276.995 2673.77 272.445C2673.21 271.211 2671.76 270.661 2670.53 271.216 2670.51 271.226 2670.49 271.235 2670.47 271.245 2669.21 271.813 2668.66 273.288 2669.22 274.545L2671.32 279.095C2671.93 280.335 2673.4 280.885 2674.67 280.345 2675.92 279.763 2676.47 278.277 2675.88 277.025 2675.88 277.015 2675.87 277.005 2675.87 276.995Z" fill="#000000" fill-rule="evenodd" fill-opacity="1"/><path d="M2668.9 263.022 2666.8 258.472C2666.21 257.211 2664.72 256.655 2663.45 257.222 2662.2 257.804 2661.65 259.291 2662.23 260.543 2662.24 260.553 2662.24 260.562 2662.25 260.572L2664.35 265.122C2664.74 266.009 2665.63 266.578 2666.6 266.572 2666.94 266.641 2667.3 266.641 2667.65 266.572 2668.93 266.06 2669.55 264.605 2669.04 263.323 2669 263.22 2668.95 263.119 2668.9 263.022Z" fill="#000000" fill-rule="evenodd" fill-opacity="1"/><path d="M2658.12 250.993C2658.75 252.274 2660.27 252.841 2661.58 252.285 2662.88 251.683 2663.44 250.147 2662.84 248.853 2662.83 248.843 2662.83 248.833 2662.82 248.823L2662.26 247.583 2679.31 239.316C2680.19 238.872 2680.74 237.976 2680.75 236.991L2680.75 205.991C2680.74 205.537 2680.62 205.093 2680.39 204.699L2680.08 204.39C2679.94 204.147 2679.74 203.936 2679.51 203.769L2648.51 188.27C2647.8 187.91 2646.96 187.91 2646.24 188.27L2615.24 203.769C2615.01 203.936 2614.82 204.147 2614.67 204.39 2614.56 204.479 2614.45 204.584 2614.36 204.699 2614.13 205.093 2614.01 205.537 2614 205.991L2614 236.991C2614.01 237.976 2614.57 238.872 2615.45 239.316L2632.5 247.841 2631.46 250.063C2630.88 251.361 2631.46 252.886 2632.75 253.473 2633.08 253.662 2633.46 253.752 2633.84 253.731 2634.84 253.724 2635.75 253.14 2636.16 252.233L2637.15 250.166 2646.45 254.816C2647.17 255.16 2648 255.16 2648.72 254.816L2658.02 250.166ZM2647.17 193.126 2672.38 205.733 2647.17 218.34 2621.96 205.733ZM2618.75 209.918 2644.59 222.835 2644.59 248.048 2637.51 244.483C2637.28 244.188 2636.97 243.957 2636.63 243.811 2636.36 243.741 2636.07 243.741 2635.8 243.811L2618.75 235.131ZM2649.75 222.835 2675.59 209.918 2675.59 235.131 2658.54 243.656C2658.27 243.587 2657.98 243.587 2657.71 243.656 2657.37 243.802 2657.06 244.033 2656.83 244.328L2649.75 247.841Z" fill="#000000" fill-rule="evenodd" fill-opacity="1"/><path d="M2628.44 327.934 2625.87 327.934 2625.87 315.05C2625.86 314.597 2625.73 314.154 2625.51 313.761 2625.42 313.646 2625.31 313.542 2625.2 313.452 2625.05 313.21 2624.86 313 2624.63 312.834L2610.95 305.979 2611.62 304.536C2612.2 303.241 2611.63 301.72 2610.34 301.134 2609.08 300.527 2607.58 301.053 2606.97 302.309 2606.96 302.33 2606.95 302.351 2606.94 302.371L2606.38 303.66 2593.57 297.269C2592.86 296.91 2592.02 296.91 2591.31 297.269L2560.45 312.731C2560.22 312.896 2560.03 313.107 2559.88 313.349 2559.77 313.439 2559.67 313.543 2559.58 313.658 2559.26 314.059 2559.06 314.542 2559.01 315.05L2559.01 345.973C2558.92 347.047 2559.49 348.068 2560.45 348.55L2591.31 364.011C2592.02 364.354 2592.85 364.354 2593.57 364.011L2624.43 348.55C2625.39 348.068 2625.96 347.047 2625.87 345.973L2625.87 333.088 2628.44 333.088C2629.86 333.088 2631.01 331.934 2631.01 330.512 2631.01 329.088 2629.86 327.934 2628.44 327.934ZM2592.44 302.474 2617.54 315.05 2592.44 327.625 2567.34 315.05ZM2564.15 319.224 2589.87 332.109 2589.87 357.26 2564.15 344.375ZM2620.72 344.375 2595.01 357.26 2595.01 332.109 2620.72 319.224Z" fill="#000000" fill-rule="evenodd" fill-opacity="1"/><path d="M2644.5 328 2639.5 328C2638.12 328 2637 329.119 2637 330.5 2637 331.881 2638.12 333 2639.5 333L2644.5 333C2645.88 333 2647 331.881 2647 330.5 2647 329.119 2645.88 328 2644.5 328Z" fill="#000000" fill-rule="evenodd" fill-opacity="1"/><path d="M2660.25 328 2654.75 328C2653.23 328 2652 329.119 2652 330.5 2652 331.881 2653.23 333 2654.75 333L2660.25 333C2661.77 333 2663 331.881 2663 330.5 2663 329.119 2661.77 328 2660.25 328Z" fill="#000000" fill-rule="evenodd" fill-opacity="1"/></g></g></svg>