<svg width="165" height="178" xmlns="http://www.w3.org/2000/svg" xmlns:xlink="http://www.w3.org/1999/xlink" xml:space="preserve" overflow="hidden"><defs><clipPath id="clip0"><rect x="2562" y="1824" width="165" height="178"/></clipPath><clipPath id="clip1"><rect x="2562" y="1824" width="165" height="178"/></clipPath></defs><g clip-path="url(#clip0)" transform="translate(-2562 -1824)"><g clip-path="url(#clip1)"><path d="M2606.88 1850 2588.12 1850C2586.4 1850 2585 1848.43 2585 1846.5 2585 1844.57 2586.4 1843 2588.12 1843L2606.88 1843C2608.6 1843 2610 1844.57 2610 1846.5 2610 1848.43 2608.6 1850 2606.88 1850Z" fill="#000000" fill-rule="evenodd" fill-opacity="1"/><path d="M2606.88 1907 2588.12 1907C2586.4 1907 2585 1905.43 2585 1903.5 2585 1901.57 2586.4 1900 2588.12 1900L2606.88 1900C2608.6 1900 2610 1901.57 2610 1903.5 2610 1905.43 2608.6 1907 2606.88 1907Z" fill="#000000" fill-rule="evenodd" fill-opacity="1"/><path d="M2606.88 1964 2588.12 1964C2586.4 1964 2585 1962.43 2585 1960.5 2585 1958.57 2586.4 1957 2588.12 1957L2606.88 1957C2608.6 1957 2610 1958.57 2610 1960.5 2610 1962.43 2608.6 1964 2606.88 1964Z" fill="#000000" fill-rule="evenodd" fill-opacity="1"/><path d="M2705.67 1825 2584.33 1825C2574.3 1824.93 2566.1 1832.99 2566 1843.02L2566 1983.98C2566.1 1994.01 2574.3 2002.07 2584.33 2002L2705.74 2002C2715.81 2001.97 2723.97 1993.81 2724 1983.73L2724 1843.02C2723.9 1832.99 2715.7 1824.93 2705.67 1825ZM2572.32 1888.21 2717.68 1888.21 2717.68 1938.79 2572.32 1938.79ZM2584.33 1831.32 2705.67 1831.32C2712.21 1831.25 2717.58 1836.48 2717.68 1843.02L2717.68 1881.89 2572.32 1881.89 2572.32 1843.02C2572.42 1836.48 2577.79 1831.25 2584.33 1831.32ZM2705.74 1995.68 2584.33 1995.68C2577.79 1995.75 2572.42 1990.52 2572.32 1983.98L2572.32 1945.11 2717.68 1945.11 2717.68 1983.79C2717.65 1990.37 2712.31 1995.68 2705.74 1995.68Z" fill="#000000" fill-rule="evenodd" fill-opacity="1"/></g></g></svg>